<?xml version="1.0" standalone="no"?>
<!DOCTYPE svg PUBLIC "-//W3C//DTD SVG 20010904//EN"
 "http://www.w3.org/TR/2001/REC-SVG-20010904/DTD/svg10.dtd">
<svg version="1.0" xmlns="http://www.w3.org/2000/svg"
 width="604.000000pt" height="235.000000pt" viewBox="0 0 604.000000 235.000000"
 preserveAspectRatio="xMidYMid meet">
<metadata>
Created by potrace 1.15, written by Peter Selinger 2001-2017
</metadata>
<g transform="translate(0.000000,235.000000) scale(0.100000,-0.100000)"
fill="#000000" stroke="none">
<path d="M107 2243 c-9 -8 -9 -1956 -1 -1977 6 -14 102 -16 990 -16 l984 0 0
60 0 60 -930 0 -930 0 0 880 0 880 2810 0 2810 0 0 -930 0 -930 60 0 60 0 0
984 c0 888 -2 984 -16 990 -22 8 -5829 8 -5837 -1z"/>
<path d="M4293 564 c-45 -23 -65 -58 -65 -114 0 -63 20 -99 86 -150 82 -63
116 -105 116 -143 0 -39 -15 -57 -48 -57 -40 0 -61 19 -73 65 -10 42 -13 44
-38 39 -39 -10 -44 -19 -36 -60 9 -52 62 -104 107 -105 93 -3 119 6 148 54 44
72 13 159 -86 238 -101 81 -123 119 -90 164 32 44 116 7 116 -52 0 -20 4 -23
20 -19 11 3 29 9 41 12 17 5 19 11 14 32 -16 65 -56 98 -130 107 -36 4 -59 1
-82 -11z"/>
<path d="M4645 567 c-73 -34 -88 -84 -83 -282 5 -206 28 -246 142 -246 89 0
128 38 142 139 l7 52 -40 0 -40 0 -5 -50 c-6 -61 -21 -80 -64 -80 -59 0 -69
29 -69 200 0 170 5 195 42 208 53 18 93 -15 93 -77 0 -30 2 -31 41 -31 l41 0
-7 43 c-15 87 -53 126 -128 133 -23 3 -55 -2 -72 -9z"/>
<path d="M4985 573 c-81 -23 -98 -73 -93 -285 3 -176 9 -199 62 -234 36 -23
132 -21 165 3 52 39 61 73 61 245 0 173 -11 223 -56 253 -26 17 -106 28 -139
18z m113 -109 c10 -27 13 -81 10 -181 -3 -121 -6 -144 -22 -162 -25 -28 -77
-28 -102 0 -17 19 -19 38 -19 183 0 172 7 202 47 208 47 7 72 -7 86 -48z"/>
<path d="M2250 306 l0 -266 35 0 35 0 0 197 c0 108 3 194 6 191 4 -4 73 -363
74 -385 0 -2 13 -3 29 -3 28 0 29 1 46 97 10 54 25 139 35 188 l18 90 1 -187
1 -188 40 0 40 0 0 265 0 265 -53 0 -53 0 -33 -182 c-19 -101 -37 -186 -40
-191 -4 -4 -23 77 -42 180 l-34 188 -52 3 -53 3 0 -265z"/>
<path d="M2680 305 l0 -265 40 0 40 0 0 265 0 265 -40 0 -40 0 0 -265z"/>
<path d="M2840 305 l0 -265 35 0 35 0 0 172 c0 94 3 168 7 164 4 -3 35 -80 69
-169 57 -148 64 -162 88 -165 l26 -3 0 265 0 266 -35 0 -34 0 -3 -157 -3 -158
-64 158 c-62 150 -66 157 -93 157 l-28 0 0 -265z"/>
<path d="M3190 305 l0 -265 35 0 34 0 3 122 3 123 68 3 67 3 0 -126 0 -125 35
0 35 0 0 265 0 265 -35 0 -34 0 -3 -112 -3 -113 -65 0 -65 0 -3 113 -3 112
-34 0 -35 0 0 -265z"/>
<path d="M3626 553 c-9 -30 -106 -487 -106 -500 0 -8 14 -13 35 -13 30 0 36 4
41 28 24 108 20 102 73 102 l49 0 12 -65 12 -65 40 0 c28 0 39 4 36 13 -3 6
-29 126 -58 265 l-54 252 -37 0 c-27 0 -39 -5 -43 -17z"/>
<path d="M3990 305 l0 -265 105 0 105 0 0 30 0 30 -70 0 -71 0 3 93 3 92 48 3
c42 3 47 6 47 27 0 21 -5 24 -47 27 l-48 3 0 85 0 85 68 3 c64 3 67 4 67 27 0
25 0 25 -105 25 l-105 0 0 -265z"/>
<path d="M5250 305 l0 -265 105 0 105 0 0 30 0 30 -70 0 -70 0 0 235 0 235
-35 0 -35 0 0 -265z"/>
<path d="M5576 553 c-9 -30 -106 -487 -106 -500 0 -8 14 -13 35 -13 30 0 36 4
41 28 24 108 20 102 73 102 l49 0 12 -65 12 -65 40 0 c28 0 39 4 36 13 -3 6
-29 126 -58 265 l-54 252 -37 0 c-27 0 -39 -5 -43 -17z"/>
</g>
</svg>
