<?xml version="1.0" standalone="no"?>
<!DOCTYPE svg PUBLIC "-//W3C//DTD SVG 20010904//EN"
 "http://www.w3.org/TR/2001/REC-SVG-20010904/DTD/svg10.dtd">
<svg version="1.0" xmlns="http://www.w3.org/2000/svg"
 width="439.000000pt" height="442.000000pt" viewBox="0 0 439.000000 442.000000"
 preserveAspectRatio="xMidYMid meet">
<metadata>
Created by potrace 1.15, written by Peter Selinger 2001-2017
</metadata>
<g transform="translate(0.000000,442.000000) scale(0.100000,-0.100000)"
fill="#000000" stroke="none">
<path d="M1073 3278 c-565 -607 -1036 -1114 -1046 -1125 -18 -21 -11 -28 1085
-1050 607 -565 1114 -1036 1125 -1046 21 -18 28 -11 1050 1085 565 607 1036
1114 1046 1125 18 21 11 28 -1085 1050 -607 565 -1114 1036 -1125 1046 -21 18
-28 11 -1050 -1085z m1617 -75 c0 -5 -146 -422 -324 -928 l-324 -920 -152 -3
c-142 -2 -152 -1 -148 15 5 18 630 1793 643 1826 6 15 24 17 156 17 82 0 149
-3 149 -7z m355 -626 l440 -183 3 -150 2 -150 -428 -177 c-236 -98 -439 -181
-451 -184 -21 -5 -22 -4 -19 121 l3 127 322 128 c177 70 325 129 327 132 3 3
-142 63 -322 135 l-327 129 -3 128 c-1 70 1 127 5 127 4 0 206 -83 448 -183z
m-1297 37 l-3 -127 -329 -130 -330 -130 332 -131 332 -131 0 -128 c0 -118 -1
-128 -17 -123 -10 3 -211 87 -448 185 l-430 179 -3 148 -2 149 437 182 c241
100 444 182 451 182 10 1 12 -28 10 -125z"/>
</g>
</svg>
